# xmcd
#
# Track frame offsets:
#	150
#	42185
#	60992
#	96815
#	114340
#	127122
#
# Disc length: 2562 seconds
#
# Revision: 4
# Processed by: cddbd v1.5.1PL0 Copyright (c) Steve Scherf et al.
# Submitted via: dBpowerAMP V4.0
#
DISCID=470a0006
DTITLE=Paulo Moura - Alma Brasileira (Gafierira Etc and Tal)
DYEAR=1997
DGENRE=Instrumental
TTITLE0=Dialogo (para a paz mundial)
TTITLE1=Ao Velho Pedro
TTITLE2=Rio Negro
TTITLE3=Alma Brasileira
TTITLE4=Nada Alem
TTITLE5=Fibra/Magia do samba/Jogada/Magia do samba(reprise)/MRA
EXTD=
EXTT0=
EXTT1=
EXTT2=
EXTT3=
EXTT4=
EXTT5=
PLAYORDER=
